<mxfile host="app.diagrams.net" agent="Mozilla/5.0 (Windows NT 10.0; Win64; x64) AppleWebKit/537.36 (KHTML, like Gecko) Chrome/131.0.0.0 Safari/537.36" version="25.0.1">
  <diagram name="Trang-1" id="zRStrCZms60aBh5zQ9CK">
    <mxGraphModel dx="1994" dy="1788" grid="1" gridSize="10" guides="1" tooltips="1" connect="1" arrows="1" fold="1" page="1" pageScale="1" pageWidth="827" pageHeight="1169" math="0" shadow="0">
      <root>
        <mxCell id="0" />
        <mxCell id="1" parent="0" />
        <mxCell id="b3J7wT-M6WEdxHhECkrl-1" value="User" style="shape=umlActor;verticalLabelPosition=bottom;verticalAlign=top;html=1;outlineConnect=0;" parent="1" vertex="1">
          <mxGeometry x="-60" y="900" width="30" height="60" as="geometry" />
        </mxCell>
        <mxCell id="b3J7wT-M6WEdxHhECkrl-2" value="Login" style="ellipse;whiteSpace=wrap;html=1;" parent="1" vertex="1">
          <mxGeometry x="354" y="-260" width="120" height="80" as="geometry" />
        </mxCell>
        <mxCell id="b3J7wT-M6WEdxHhECkrl-3" value="Logout" style="ellipse;whiteSpace=wrap;html=1;" parent="1" vertex="1">
          <mxGeometry x="361.5" y="2230" width="120" height="80" as="geometry" />
        </mxCell>
        <mxCell id="b3J7wT-M6WEdxHhECkrl-4" value="CV list management" style="ellipse;whiteSpace=wrap;html=1;" parent="1" vertex="1">
          <mxGeometry x="354" y="250" width="120" height="80" as="geometry" />
        </mxCell>
        <mxCell id="b3J7wT-M6WEdxHhECkrl-9" value="Dashboard" style="ellipse;whiteSpace=wrap;html=1;" parent="1" vertex="1">
          <mxGeometry x="354" y="690" width="120" height="80" as="geometry" />
        </mxCell>
        <mxCell id="b3J7wT-M6WEdxHhECkrl-10" value="CV from 3rd parties diagram" style="ellipse;whiteSpace=wrap;html=1;" parent="1" vertex="1">
          <mxGeometry x="600" y="525" width="120" height="80" as="geometry" />
        </mxCell>
        <mxCell id="b3J7wT-M6WEdxHhECkrl-11" value="CV status diagram" style="ellipse;whiteSpace=wrap;html=1;" parent="1" vertex="1">
          <mxGeometry x="600" y="635" width="120" height="80" as="geometry" />
        </mxCell>
        <mxCell id="b3J7wT-M6WEdxHhECkrl-12" value="" style="endArrow=none;html=1;rounded=0;entryX=0;entryY=0.5;entryDx=0;entryDy=0;" parent="1" source="b3J7wT-M6WEdxHhECkrl-1" target="b3J7wT-M6WEdxHhECkrl-2" edge="1">
          <mxGeometry width="50" height="50" relative="1" as="geometry">
            <mxPoint x="80" y="380" as="sourcePoint" />
            <mxPoint x="350" y="130" as="targetPoint" />
          </mxGeometry>
        </mxCell>
        <mxCell id="b3J7wT-M6WEdxHhECkrl-13" value="" style="endArrow=none;html=1;rounded=0;entryX=0;entryY=0.5;entryDx=0;entryDy=0;" parent="1" source="b3J7wT-M6WEdxHhECkrl-1" target="b3J7wT-M6WEdxHhECkrl-4" edge="1">
          <mxGeometry width="50" height="50" relative="1" as="geometry">
            <mxPoint x="80" y="390" as="sourcePoint" />
            <mxPoint x="280" y="320" as="targetPoint" />
          </mxGeometry>
        </mxCell>
        <mxCell id="b3J7wT-M6WEdxHhECkrl-15" value="" style="endArrow=none;html=1;rounded=0;entryX=0;entryY=0.5;entryDx=0;entryDy=0;" parent="1" source="b3J7wT-M6WEdxHhECkrl-1" target="b3J7wT-M6WEdxHhECkrl-9" edge="1">
          <mxGeometry width="50" height="50" relative="1" as="geometry">
            <mxPoint x="140" y="550" as="sourcePoint" />
            <mxPoint x="190" y="500" as="targetPoint" />
          </mxGeometry>
        </mxCell>
        <mxCell id="b3J7wT-M6WEdxHhECkrl-16" value="" style="endArrow=none;html=1;rounded=0;entryX=0;entryY=0.5;entryDx=0;entryDy=0;" parent="1" source="b3J7wT-M6WEdxHhECkrl-1" target="b3J7wT-M6WEdxHhECkrl-3" edge="1">
          <mxGeometry width="50" height="50" relative="1" as="geometry">
            <mxPoint x="140" y="620" as="sourcePoint" />
            <mxPoint x="190" y="570" as="targetPoint" />
          </mxGeometry>
        </mxCell>
        <mxCell id="b3J7wT-M6WEdxHhECkrl-17" value="" style="endArrow=none;html=1;rounded=0;exitX=1;exitY=0.5;exitDx=0;exitDy=0;entryX=0;entryY=0.5;entryDx=0;entryDy=0;" parent="1" source="b3J7wT-M6WEdxHhECkrl-9" target="b3J7wT-M6WEdxHhECkrl-10" edge="1">
          <mxGeometry width="50" height="50" relative="1" as="geometry">
            <mxPoint x="518" y="685" as="sourcePoint" />
            <mxPoint x="568" y="635" as="targetPoint" />
          </mxGeometry>
        </mxCell>
        <mxCell id="b3J7wT-M6WEdxHhECkrl-18" value="" style="endArrow=none;html=1;rounded=0;exitX=1;exitY=0.5;exitDx=0;exitDy=0;entryX=0;entryY=0.5;entryDx=0;entryDy=0;" parent="1" source="b3J7wT-M6WEdxHhECkrl-9" target="b3J7wT-M6WEdxHhECkrl-11" edge="1">
          <mxGeometry width="50" height="50" relative="1" as="geometry">
            <mxPoint x="508" y="785" as="sourcePoint" />
            <mxPoint x="558" y="735" as="targetPoint" />
          </mxGeometry>
        </mxCell>
        <mxCell id="b3J7wT-M6WEdxHhECkrl-19" value="User and permission management" style="ellipse;whiteSpace=wrap;html=1;" parent="1" vertex="1">
          <mxGeometry x="354" y="1070" width="120" height="80" as="geometry" />
        </mxCell>
        <mxCell id="b3J7wT-M6WEdxHhECkrl-20" value="" style="endArrow=none;html=1;rounded=0;entryX=0;entryY=0.5;entryDx=0;entryDy=0;" parent="1" source="b3J7wT-M6WEdxHhECkrl-1" target="b3J7wT-M6WEdxHhECkrl-19" edge="1">
          <mxGeometry width="50" height="50" relative="1" as="geometry">
            <mxPoint x="260" y="650" as="sourcePoint" />
            <mxPoint x="310" y="600" as="targetPoint" />
          </mxGeometry>
        </mxCell>
        <mxCell id="PKD5bAg7vHcc14K1say2-1" value="Interviewing management" style="ellipse;whiteSpace=wrap;html=1;fillColor=#d5e8d4;strokeColor=#82b366;" parent="1" vertex="1">
          <mxGeometry x="363" y="1380" width="120" height="80" as="geometry" />
        </mxCell>
        <mxCell id="PKD5bAg7vHcc14K1say2-2" value="" style="endArrow=none;html=1;rounded=0;entryX=0;entryY=0.5;entryDx=0;entryDy=0;" parent="1" source="b3J7wT-M6WEdxHhECkrl-1" target="PKD5bAg7vHcc14K1say2-1" edge="1">
          <mxGeometry width="50" height="50" relative="1" as="geometry">
            <mxPoint x="230" y="790" as="sourcePoint" />
            <mxPoint x="280" y="740" as="targetPoint" />
          </mxGeometry>
        </mxCell>
        <mxCell id="PKD5bAg7vHcc14K1say2-3" value="Interview scheduling" style="ellipse;whiteSpace=wrap;html=1;fillColor=#d5e8d4;strokeColor=#82b366;" parent="1" vertex="1">
          <mxGeometry x="603" y="1300" width="120" height="80" as="geometry" />
        </mxCell>
        <mxCell id="PKD5bAg7vHcc14K1say2-4" value="" style="endArrow=none;html=1;rounded=0;exitX=1;exitY=0.5;exitDx=0;exitDy=0;entryX=0;entryY=0.5;entryDx=0;entryDy=0;" parent="1" source="PKD5bAg7vHcc14K1say2-1" target="PKD5bAg7vHcc14K1say2-3" edge="1">
          <mxGeometry width="50" height="50" relative="1" as="geometry">
            <mxPoint x="543" y="1410" as="sourcePoint" />
            <mxPoint x="593" y="1360" as="targetPoint" />
          </mxGeometry>
        </mxCell>
        <mxCell id="PKD5bAg7vHcc14K1say2-5" value="Interviewing" style="ellipse;whiteSpace=wrap;html=1;fillColor=#d5e8d4;strokeColor=#82b366;" parent="1" vertex="1">
          <mxGeometry x="603" y="1450" width="120" height="80" as="geometry" />
        </mxCell>
        <mxCell id="PKD5bAg7vHcc14K1say2-6" value="" style="endArrow=none;html=1;rounded=0;exitX=1;exitY=0.5;exitDx=0;exitDy=0;entryX=0;entryY=0.5;entryDx=0;entryDy=0;" parent="1" source="PKD5bAg7vHcc14K1say2-1" target="PKD5bAg7vHcc14K1say2-5" edge="1">
          <mxGeometry width="50" height="50" relative="1" as="geometry">
            <mxPoint x="503" y="1540" as="sourcePoint" />
            <mxPoint x="553" y="1490" as="targetPoint" />
          </mxGeometry>
        </mxCell>
        <mxCell id="PKD5bAg7vHcc14K1say2-7" value="Interviewing result management" style="ellipse;whiteSpace=wrap;html=1;fillColor=#d5e8d4;strokeColor=#82b366;" parent="1" vertex="1">
          <mxGeometry x="833" y="1450" width="120" height="80" as="geometry" />
        </mxCell>
        <mxCell id="PKD5bAg7vHcc14K1say2-8" value="" style="endArrow=none;html=1;rounded=0;exitX=1;exitY=0.5;exitDx=0;exitDy=0;entryX=0;entryY=0.5;entryDx=0;entryDy=0;" parent="1" source="PKD5bAg7vHcc14K1say2-5" target="PKD5bAg7vHcc14K1say2-7" edge="1">
          <mxGeometry width="50" height="50" relative="1" as="geometry">
            <mxPoint x="733" y="1610" as="sourcePoint" />
            <mxPoint x="783" y="1560" as="targetPoint" />
          </mxGeometry>
        </mxCell>
        <mxCell id="PKD5bAg7vHcc14K1say2-9" value="Onboarding management" style="ellipse;whiteSpace=wrap;html=1;fillColor=#d5e8d4;strokeColor=#82b366;" parent="1" vertex="1">
          <mxGeometry x="366" y="1579" width="120" height="80" as="geometry" />
        </mxCell>
        <mxCell id="PKD5bAg7vHcc14K1say2-10" value="" style="endArrow=none;html=1;rounded=0;entryX=0;entryY=0.5;entryDx=0;entryDy=0;" parent="1" source="b3J7wT-M6WEdxHhECkrl-1" target="PKD5bAg7vHcc14K1say2-9" edge="1">
          <mxGeometry width="50" height="50" relative="1" as="geometry">
            <mxPoint x="300" y="1020" as="sourcePoint" />
            <mxPoint x="350" y="970" as="targetPoint" />
          </mxGeometry>
        </mxCell>
        <mxCell id="PKD5bAg7vHcc14K1say2-11" value="Onboarding scheduling" style="ellipse;whiteSpace=wrap;html=1;fillColor=#d5e8d4;strokeColor=#82b366;" parent="1" vertex="1">
          <mxGeometry x="602" y="1579" width="120" height="80" as="geometry" />
        </mxCell>
        <mxCell id="PKD5bAg7vHcc14K1say2-12" value="" style="endArrow=none;html=1;rounded=0;exitX=1;exitY=0.5;exitDx=0;exitDy=0;entryX=0;entryY=0.5;entryDx=0;entryDy=0;" parent="1" source="PKD5bAg7vHcc14K1say2-9" target="PKD5bAg7vHcc14K1say2-11" edge="1">
          <mxGeometry width="50" height="50" relative="1" as="geometry">
            <mxPoint x="512" y="1720" as="sourcePoint" />
            <mxPoint x="562" y="1670" as="targetPoint" />
          </mxGeometry>
        </mxCell>
        <mxCell id="PKD5bAg7vHcc14K1say2-13" value="Viewing CV detail" style="ellipse;whiteSpace=wrap;html=1;" parent="1" vertex="1">
          <mxGeometry x="600" y="370" width="120" height="80" as="geometry" />
        </mxCell>
        <mxCell id="PKD5bAg7vHcc14K1say2-14" value="" style="endArrow=none;html=1;rounded=0;exitX=1;exitY=0.5;exitDx=0;exitDy=0;entryX=0;entryY=0.5;entryDx=0;entryDy=0;" parent="1" source="b3J7wT-M6WEdxHhECkrl-4" target="PKD5bAg7vHcc14K1say2-13" edge="1">
          <mxGeometry width="50" height="50" relative="1" as="geometry">
            <mxPoint x="530" y="300" as="sourcePoint" />
            <mxPoint x="580" y="250" as="targetPoint" />
          </mxGeometry>
        </mxCell>
        <mxCell id="PKD5bAg7vHcc14K1say2-15" value="Get CV from 3rd parties" style="ellipse;whiteSpace=wrap;html=1;" parent="1" vertex="1">
          <mxGeometry x="354" y="-90" width="120" height="80" as="geometry" />
        </mxCell>
        <mxCell id="PKD5bAg7vHcc14K1say2-16" value="Extracting meaning from CV" style="ellipse;whiteSpace=wrap;html=1;fillColor=#d5e8d4;strokeColor=#82b366;" parent="1" vertex="1">
          <mxGeometry x="594" y="-90" width="120" height="80" as="geometry" />
        </mxCell>
        <mxCell id="PKD5bAg7vHcc14K1say2-17" value="" style="endArrow=none;html=1;rounded=0;entryX=0;entryY=0.5;entryDx=0;entryDy=0;exitX=1;exitY=0.3333333333333333;exitDx=0;exitDy=0;exitPerimeter=0;" parent="1" target="PKD5bAg7vHcc14K1say2-15" edge="1" source="b3J7wT-M6WEdxHhECkrl-1">
          <mxGeometry width="50" height="50" relative="1" as="geometry">
            <mxPoint x="-10" y="710" as="sourcePoint" />
            <mxPoint x="220" y="360" as="targetPoint" />
          </mxGeometry>
        </mxCell>
        <mxCell id="PKD5bAg7vHcc14K1say2-18" value="" style="endArrow=none;html=1;rounded=0;exitX=1;exitY=0.5;exitDx=0;exitDy=0;entryX=0;entryY=0.5;entryDx=0;entryDy=0;" parent="1" source="PKD5bAg7vHcc14K1say2-15" target="PKD5bAg7vHcc14K1say2-16" edge="1">
          <mxGeometry width="50" height="50" relative="1" as="geometry">
            <mxPoint x="514" y="-10" as="sourcePoint" />
            <mxPoint x="564" y="-60" as="targetPoint" />
          </mxGeometry>
        </mxCell>
        <mxCell id="PKD5bAg7vHcc14K1say2-19" value="Auto evaluating suitability of CV&amp;nbsp;" style="ellipse;whiteSpace=wrap;html=1;fillColor=#d5e8d4;strokeColor=#82b366;" parent="1" vertex="1">
          <mxGeometry x="354" y="60" width="120" height="80" as="geometry" />
        </mxCell>
        <mxCell id="PKD5bAg7vHcc14K1say2-21" value="" style="endArrow=none;html=1;rounded=0;entryX=0;entryY=0.5;entryDx=0;entryDy=0;" parent="1" source="b3J7wT-M6WEdxHhECkrl-1" target="PKD5bAg7vHcc14K1say2-19" edge="1">
          <mxGeometry width="50" height="50" relative="1" as="geometry">
            <mxPoint x="250" y="290" as="sourcePoint" />
            <mxPoint x="300" y="240" as="targetPoint" />
          </mxGeometry>
        </mxCell>
        <mxCell id="PKD5bAg7vHcc14K1say2-22" value="Suggesting CV for other users" style="ellipse;whiteSpace=wrap;html=1;fillColor=#d5e8d4;strokeColor=#82b366;" parent="1" vertex="1">
          <mxGeometry x="850" y="300" width="120" height="80" as="geometry" />
        </mxCell>
        <mxCell id="PKD5bAg7vHcc14K1say2-23" value="Putting a CV to black list" style="ellipse;whiteSpace=wrap;html=1;fillColor=#d5e8d4;strokeColor=#82b366;" parent="1" vertex="1">
          <mxGeometry x="850" y="420" width="120" height="80" as="geometry" />
        </mxCell>
        <mxCell id="PKD5bAg7vHcc14K1say2-24" value="" style="endArrow=none;html=1;rounded=0;exitX=1;exitY=0.5;exitDx=0;exitDy=0;entryX=0;entryY=0.5;entryDx=0;entryDy=0;" parent="1" source="PKD5bAg7vHcc14K1say2-13" target="PKD5bAg7vHcc14K1say2-22" edge="1">
          <mxGeometry width="50" height="50" relative="1" as="geometry">
            <mxPoint x="790" y="390" as="sourcePoint" />
            <mxPoint x="840" y="340" as="targetPoint" />
          </mxGeometry>
        </mxCell>
        <mxCell id="PKD5bAg7vHcc14K1say2-25" value="" style="endArrow=none;html=1;rounded=0;exitX=1;exitY=0.5;exitDx=0;exitDy=0;entryX=0;entryY=0.5;entryDx=0;entryDy=0;" parent="1" source="PKD5bAg7vHcc14K1say2-13" target="PKD5bAg7vHcc14K1say2-23" edge="1">
          <mxGeometry width="50" height="50" relative="1" as="geometry">
            <mxPoint x="770" y="480" as="sourcePoint" />
            <mxPoint x="820" y="430" as="targetPoint" />
          </mxGeometry>
        </mxCell>
        <mxCell id="jMW4hHmubsosZGaRDKhh-1" value="Sorting by: view count, matching percentage" style="ellipse;whiteSpace=wrap;html=1;fillColor=#d5e8d4;strokeColor=#82b366;" vertex="1" parent="1">
          <mxGeometry x="600" y="130" width="120" height="80" as="geometry" />
        </mxCell>
        <mxCell id="jMW4hHmubsosZGaRDKhh-2" value="" style="endArrow=none;html=1;rounded=0;exitX=1;exitY=0.5;exitDx=0;exitDy=0;entryX=0;entryY=0.5;entryDx=0;entryDy=0;" edge="1" parent="1" source="b3J7wT-M6WEdxHhECkrl-4" target="jMW4hHmubsosZGaRDKhh-1">
          <mxGeometry width="50" height="50" relative="1" as="geometry">
            <mxPoint x="530" y="230" as="sourcePoint" />
            <mxPoint x="580" y="180" as="targetPoint" />
          </mxGeometry>
        </mxCell>
        <mxCell id="jMW4hHmubsosZGaRDKhh-3" value="Warning sensitive words: FPT, FIS, FSOFT" style="ellipse;whiteSpace=wrap;html=1;fillColor=#d5e8d4;strokeColor=#82b366;" vertex="1" parent="1">
          <mxGeometry x="600" y="250" width="120" height="80" as="geometry" />
        </mxCell>
        <mxCell id="jMW4hHmubsosZGaRDKhh-4" value="" style="endArrow=none;html=1;rounded=0;exitX=1;exitY=0.5;exitDx=0;exitDy=0;entryX=0;entryY=0.5;entryDx=0;entryDy=0;" edge="1" parent="1" source="b3J7wT-M6WEdxHhECkrl-4" target="jMW4hHmubsosZGaRDKhh-3">
          <mxGeometry width="50" height="50" relative="1" as="geometry">
            <mxPoint x="550" y="310" as="sourcePoint" />
            <mxPoint x="600" y="260" as="targetPoint" />
          </mxGeometry>
        </mxCell>
        <mxCell id="jMW4hHmubsosZGaRDKhh-5" value="Hiring jobs diagram" style="ellipse;whiteSpace=wrap;html=1;fillColor=#d5e8d4;strokeColor=#82b366;" vertex="1" parent="1">
          <mxGeometry x="600" y="745" width="120" height="80" as="geometry" />
        </mxCell>
        <mxCell id="jMW4hHmubsosZGaRDKhh-6" value="" style="endArrow=none;html=1;rounded=0;exitX=1;exitY=0.5;exitDx=0;exitDy=0;entryX=0;entryY=0.5;entryDx=0;entryDy=0;" edge="1" parent="1" source="b3J7wT-M6WEdxHhECkrl-9" target="jMW4hHmubsosZGaRDKhh-5">
          <mxGeometry width="50" height="50" relative="1" as="geometry">
            <mxPoint x="500" y="790" as="sourcePoint" />
            <mxPoint x="550" y="740" as="targetPoint" />
          </mxGeometry>
        </mxCell>
        <mxCell id="jMW4hHmubsosZGaRDKhh-7" value="Most common skills diagram" style="ellipse;whiteSpace=wrap;html=1;fillColor=#d5e8d4;strokeColor=#82b366;" vertex="1" parent="1">
          <mxGeometry x="600" y="855" width="120" height="80" as="geometry" />
        </mxCell>
        <mxCell id="jMW4hHmubsosZGaRDKhh-8" value="" style="endArrow=none;html=1;rounded=0;exitX=1;exitY=0.5;exitDx=0;exitDy=0;entryX=0;entryY=0.5;entryDx=0;entryDy=0;" edge="1" parent="1" source="b3J7wT-M6WEdxHhECkrl-9" target="jMW4hHmubsosZGaRDKhh-7">
          <mxGeometry width="50" height="50" relative="1" as="geometry">
            <mxPoint x="490" y="880" as="sourcePoint" />
            <mxPoint x="540" y="830" as="targetPoint" />
          </mxGeometry>
        </mxCell>
        <mxCell id="jMW4hHmubsosZGaRDKhh-9" value="User management" style="ellipse;whiteSpace=wrap;html=1;" vertex="1" parent="1">
          <mxGeometry x="598" y="960" width="120" height="80" as="geometry" />
        </mxCell>
        <mxCell id="jMW4hHmubsosZGaRDKhh-10" value="" style="endArrow=none;html=1;rounded=0;exitX=1;exitY=0.5;exitDx=0;exitDy=0;entryX=0;entryY=0.5;entryDx=0;entryDy=0;" edge="1" parent="1" source="b3J7wT-M6WEdxHhECkrl-19" target="jMW4hHmubsosZGaRDKhh-9">
          <mxGeometry width="50" height="50" relative="1" as="geometry">
            <mxPoint x="520" y="1080" as="sourcePoint" />
            <mxPoint x="570" y="1030" as="targetPoint" />
          </mxGeometry>
        </mxCell>
        <mxCell id="jMW4hHmubsosZGaRDKhh-11" value="Group of user management" style="ellipse;whiteSpace=wrap;html=1;" vertex="1" parent="1">
          <mxGeometry x="600" y="1070" width="120" height="80" as="geometry" />
        </mxCell>
        <mxCell id="jMW4hHmubsosZGaRDKhh-12" value="" style="endArrow=none;html=1;rounded=0;exitX=1;exitY=0.5;exitDx=0;exitDy=0;entryX=0;entryY=0.5;entryDx=0;entryDy=0;" edge="1" parent="1" source="b3J7wT-M6WEdxHhECkrl-19" target="jMW4hHmubsosZGaRDKhh-11">
          <mxGeometry width="50" height="50" relative="1" as="geometry">
            <mxPoint x="540" y="1180" as="sourcePoint" />
            <mxPoint x="590" y="1130" as="targetPoint" />
          </mxGeometry>
        </mxCell>
        <mxCell id="jMW4hHmubsosZGaRDKhh-13" value="Permission management" style="ellipse;whiteSpace=wrap;html=1;" vertex="1" parent="1">
          <mxGeometry x="598" y="1180" width="120" height="80" as="geometry" />
        </mxCell>
        <mxCell id="jMW4hHmubsosZGaRDKhh-14" value="" style="endArrow=none;html=1;rounded=0;exitX=1;exitY=0.5;exitDx=0;exitDy=0;entryX=0;entryY=0.5;entryDx=0;entryDy=0;" edge="1" parent="1" source="b3J7wT-M6WEdxHhECkrl-19" target="jMW4hHmubsosZGaRDKhh-13">
          <mxGeometry width="50" height="50" relative="1" as="geometry">
            <mxPoint x="500" y="1250" as="sourcePoint" />
            <mxPoint x="550" y="1200" as="targetPoint" />
          </mxGeometry>
        </mxCell>
        <mxCell id="jMW4hHmubsosZGaRDKhh-15" value="Suitable CV subscription&amp;nbsp;&amp;nbsp;" style="ellipse;whiteSpace=wrap;html=1;fillColor=#d5e8d4;strokeColor=#82b366;" vertex="1" parent="1">
          <mxGeometry x="364.5" y="1910" width="120" height="80" as="geometry" />
        </mxCell>
        <mxCell id="jMW4hHmubsosZGaRDKhh-18" value="Notification" style="ellipse;whiteSpace=wrap;html=1;fillColor=#d5e8d4;strokeColor=#82b366;" vertex="1" parent="1">
          <mxGeometry x="364.5" y="2070" width="120" height="80" as="geometry" />
        </mxCell>
        <mxCell id="jMW4hHmubsosZGaRDKhh-20" value="" style="endArrow=none;html=1;rounded=0;entryX=0;entryY=0.5;entryDx=0;entryDy=0;" edge="1" parent="1" source="b3J7wT-M6WEdxHhECkrl-1" target="jMW4hHmubsosZGaRDKhh-15">
          <mxGeometry width="50" height="50" relative="1" as="geometry">
            <mxPoint x="290" y="1700" as="sourcePoint" />
            <mxPoint x="340" y="1650" as="targetPoint" />
          </mxGeometry>
        </mxCell>
        <mxCell id="jMW4hHmubsosZGaRDKhh-21" value="" style="endArrow=none;html=1;rounded=0;exitX=1;exitY=1;exitDx=0;exitDy=0;exitPerimeter=0;entryX=0;entryY=0.5;entryDx=0;entryDy=0;" edge="1" parent="1" source="b3J7wT-M6WEdxHhECkrl-1" target="jMW4hHmubsosZGaRDKhh-18">
          <mxGeometry width="50" height="50" relative="1" as="geometry">
            <mxPoint x="320" y="1880" as="sourcePoint" />
            <mxPoint x="370" y="1830" as="targetPoint" />
          </mxGeometry>
        </mxCell>
        <mxCell id="jMW4hHmubsosZGaRDKhh-22" value="Hiring Jobs configuration&amp;nbsp;" style="ellipse;whiteSpace=wrap;html=1;fillColor=#d5e8d4;strokeColor=#82b366;" vertex="1" parent="1">
          <mxGeometry x="365" y="1740" width="120" height="80" as="geometry" />
        </mxCell>
        <mxCell id="jMW4hHmubsosZGaRDKhh-25" value="" style="endArrow=none;html=1;rounded=0;entryX=0;entryY=0.5;entryDx=0;entryDy=0;" edge="1" parent="1" source="b3J7wT-M6WEdxHhECkrl-1" target="jMW4hHmubsosZGaRDKhh-22">
          <mxGeometry width="50" height="50" relative="1" as="geometry">
            <mxPoint x="340" y="1730" as="sourcePoint" />
            <mxPoint x="390" y="1680" as="targetPoint" />
          </mxGeometry>
        </mxCell>
      </root>
    </mxGraphModel>
  </diagram>
</mxfile>
